#!OML:ASF X:\für Bonn\!DataBase\2005_08_10_Bjorn_Final\c3d\bjorn.ASF
:FULLY-SPECIFIED
:DEGREES
178
root 0.0986629 19.1794 3.3035 -177.269 -9.44389 179.262
lowerback -8.86321 -0.73388 4.12527
upperback 7.57598 -2.14 1.29094
thorax 13.2113 -0.855751 -1.36053
lowerneck -8.29263 1.09615 -1.831
upperneck 22.1399 1.27585 -2.83386
head 8.22811 -0.273016 -0.57971
rclavicle 2.84262e-014 3.97569e-015
rhumerus -22.43 -13.2951 -83.0086
rradius 30.8264
rwrist 12.1214
rhand -11.3644 12.0545
rfingers 7.12502
rthumb 14.6694 -17.4066
lclavicle 2.84262e-014 3.97569e-015
lhumerus -16.5623 -36.7202 84.0394
lradius 43.2851
lwrist -10.0136
lhand -33.6087 -22.3235
lfingers 7.12502
lthumb -6.80181 7.54724
rfemur -14.6741 -11.9979 15.6636
rtibia 32.08
rfoot -16.9487 14.4527
rtoes -16.9072
lfemur -13.6349 15.6601 -20.3921
ltibia 30.8529
lfoot -12.3521 -19.617
ltoes 9.45203
179
root 0.110745 19.1815 3.28881 -177.052 -8.33553 179.207
lowerback -8.91912 -0.537792 4.4656
upperback 7.52066 -1.92747 1.31277
thorax 13.1873 -0.725527 -1.48578
lowerneck -8.0437 1.41125 -1.57822
upperneck 22.2747 1.71934 -3.27887
head 8.2373 -0.105054 -0.73291
rclavicle 1.74931e-014 3.18055e-015
rhumerus -21.7057 -13.1448 -83.3069
rradius 30.8542
rwrist 12.2294
rhand -11.3552 12.2798
rfingers 7.12502
rthumb 14.6783 -17.1806
lclavicle 1.74931e-014 3.18055e-015
lhumerus -18.2426 -34.8013 85.1772
lradius 41.8927
lwrist -10.438
lhand -33.4054 -22.1001
lfingers 7.12502
lthumb -6.60557 7.77685
rfemur -15.1082 -13.1495 15.6369
rtibia 32.0304
rfoot -15.9871 16.5642
rtoes -15.8406
lfemur -13.6869 14.6476 -20.5903
ltibia 30.8331
lfoot -13.232 -17.3008
ltoes 7.6422
180
root 0.124224 19.1838 3.27756 -176.848 -7.25414 179.152
lowerback -8.91918 -0.376592 4.7688
upperback 7.48718 -1.7583 1.33563
thorax 13.1548 -0.621081 -1.59685
lowerneck -7.87006 1.7493 -1.27793
upperneck 22.4509 2.20233 -3.77482
head 8.27945 0.0785185 -0.908519
rclavicle -2.76311e-014 3.49861e-014
rhumerus -20.9034 -12.8359 -83.6413
rradius 30.8603
rwrist 12.2378
rhand -11.3021 12.4458
rfingers 7.12502
rthumb 14.7295 -17.0109
lclavicle -2.76311e-014 3.49861e-014
lhumerus -19.7483 -32.7561 86.0721
lradius 40.61
lwrist -10.7978
lhand -33.0209 -21.7742
lfingers 7.12502
lthumb -6.23438 8.11409
rfemur -15.5915 -14.7479 15.6219
rtibia 32.0366
rfoot -14.8462 19.143
rtoes -14.5569
lfemur -13.7614 13.7614 -20.7645
ltibia 30.8435
lfoot -13.8777 -15.1625
ltoes 6.29365
181
root 0.137206 19.1847 3.26932 -176.664 -6.16957 179.093
lowerback -8.88864 -0.225287 5.04882
upperback 7.50022 -1.60464 1.35441
thorax 13.1593 -0.526894 -1.70268
lowerneck -7.78883 2.06663 -0.979311
upperneck 22.6295 2.66596 -4.26401
head 8.34334 0.254505 -1.08345
rclavicle -3.77691e-015 -1.43125e-014
rhumerus -19.9687 -12.5675 -84.0072
rradius 30.7873
rwrist 12.3303
rhand -11.2699 12.5668
rfingers 7.12502
rthumb 14.7605 -16.8876
lclavicle -3.77691e-015 -1.43125e-014
lhumerus -21.0514 -30.6437 86.7489
lradius 39.4031
lwrist -11.1455
lhand -32.5102 -21.1916
lfingers 7.12502
lthumb -5.74135 8.71064
rfemur -16.0008 -16.5055 15.6198
rtibia 32.0828
rfoot -13.9125 21.832
rtoes -13.8192
lfemur -13.8343 12.9498 -20.9375
ltibia 30.8652
lfoot -14.4113 -13.1153
ltoes 5.05096
182
root 0.150029 19.186 3.2637 -176.479 -5.07729 179.035
lowerback -8.81541 -0.07638 5.31697
upperback 7.53026 -1.45306 1.37275
thorax 13.1588 -0.435911 -1.80236
lowerneck -7.77319 2.37142 -0.713788
upperneck 22.8129 3.11978 -4.72841
head 8.42401 0.425597 -1.24533
rclavicle 1.23246e-014 1.90833e-014
rhumerus -19.0011 -12.2666 -84.3715
rradius 30.7619
rwrist 12.3765
rhand -11.2295 12.5862
rfingers 7.12502
rthumb 14.7994 -16.8654
lclavicle 1.23246e-014 1.90833e-014
lhumerus -22.2245 -28.2752 87.2633
lradius 38.2419
lwrist -11.7215
lhand -31.8177 -20.4971
lfingers 7.12502
lthumb -5.07275 9.42213
rfemur -16.4381 -18.1676 15.6435
rtibia 32.1385
rfoot -12.8444 24.4615
rtoes -12.8254
lfemur -13.9264 12.2075 -21.1115
ltibia 30.895
lfoot -14.8557 -11.1259
ltoes 3.80162
183
root 0.163205 19.1889 3.26069 -176.313 -3.94751 178.961
lowerback -8.67125 0.0988222 5.59456
upperback 7.5732 -1.25888 1.353
thorax 13.1333 -0.322603 -1.94013
lowerneck -7.74932 2.64438 -0.474751
upperneck 22.9582 3.52087 -5.10903
head 8.49043 0.581156 -1.37905
rclavicle -5.1684e-015 -2.8625e-014
rhumerus -18.0996 -11.8969 -84.7676
rradius 30.8755
rwrist 12.3539
rhand -11.2303 12.5043
rfingers 7.12502
rthumb 14.7987 -16.9473
lclavicle -5.1684e-015 -2.8625e-014
lhumerus -23.2994 -25.8912 87.6083
lradius 37.1564
lwrist -12.3396
lhand -31.0572 -19.6818
lfingers 7.12502
lthumb -4.33837 10.2538
rfemur -16.8858 -19.6134 15.6799
rtibia 32.1957
rfoot -11.7476 26.9107
rtoes -11.8691
lfemur -14.0029 11.5066 -21.2902
ltibia 30.9206
lfoot -15.2237 -9.19769
ltoes 2.72184
184
root 0.175724 19.1932 3.25973 -176.168 -2.81127 178.908
lowerback -8.44567 0.279124 5.89747
upperback 7.60132 -1.04982 1.30922
thorax 13.0429 -0.200153 -2.11516
lowerneck -7.73081 2.90574 -0.140187
upperneck 23.1414 3.89929 -5.53987
head 8.57583 0.726051 -1.54892
rclavicle 2.98177e-015 1.35174e-014
rhumerus -17.2843 -11.522 -85.1927
rradius 31.1071
rwrist 12.2786
rhand -11.1558 12.3043
rfingers 7.12502
rthumb 14.8704 -17.1421
lclavicle 2.98177e-015 1.35174e-014
lhumerus -24.4006 -23.5852 87.8127
lradius 36.2082
lwrist -12.8067
lhand -30.1019 -18.6563
lfingers 7.12502
lthumb -3.41588 11.2961
rfemur -17.3045 -20.4366 15.7478
rtibia 32.2186
rfoot -10.7464 28.7965
rtoes -10.8306
lfemur -14.0741 10.9946 -21.4389
ltibia 30.9478
lfoot -15.4729 -7.48693
ltoes 1.85067
185
root 0.188556 19.1975 3.26186 -176.036 -1.68288 178.852
lowerback -8.15084 0.456233 6.176
upperback 7.61046 -0.834423 1.27612
thorax 12.8908 -0.0796899 -2.26407
lowerneck -7.68054 3.16043 0.0949813
upperneck 23.3449 4.26234 -5.88662
head 8.66117 0.861239 -1.67607
rclavicle -1.78906e-015 -7.95139e-016
rhumerus -16.6446 -11.1041 -85.5699
rradius 31.57
rwrist 12.1845
rhand -11.0447 12.0798
rfingers 7.12502
rthumb 14.9774 -17.3586
lclavicle -1.78906e-015 -7.95139e-016
lhumerus -25.5236 -21.331 87.9869
lradius 35.3411
lwrist -12.9123
lhand -29.0033 -17.6778
lfingers 7.12502
lthumb -2.3549 12.289
rfemur -17.7292 -20.9183 15.8233
rtibia 32.2279
rfoot -9.601 30.3797
rtoes -9.52176
lfemur -14.1575 10.5833 -21.5817
ltibia 30.9712
lfoot -15.6566 -5.89066
ltoes 0.875648
186
root 0.201774 19.2043 3.26645 -175.933 -0.572737 178.79
lowerback -7.81405 0.633039 6.43595
upperback 7.63244 -0.61016 1.21511
thorax 12.731 0.0443929 -2.43286
lowerneck -7.575 3.39773 0.393529
upperneck 23.4895 4.59207 -6.23126
head 8.71852 0.991144 -1.81625
rclavicle 4.77083e-015 1.82882e-014
rhumerus -16.1567 -10.5565 -85.9766
rradius 32.3086
rwrist 11.8958
rhand -10.9314 11.7319
rfingers 7.12502
rthumb 15.0866 -17.6984
lclavicle 4.77083e-015 1.82882e-014
lhumerus -26.6362 -19.2972 88.0478
lradius 34.5485
lwrist -12.6543
lhand -27.9042 -16.6756
lfingers 7.12502
lthumb -1.2934 13.3002
rfemur -18.1051 -20.8842 15.8871
rtibia 32.2102
rfoot -8.59346 31.4488
rtoes -8.14699
lfemur -14.2314 10.304 -21.7062
ltibia 31.0109
lfoot -15.747 -4.50159
ltoes 0.169128
187
root 0.217633 19.2101 3.27261 -175.856 0.501092 178.708
lowerback -7.45283 0.237095 6.72487
upperback 7.67786 -0.23887 1.08335
thorax 12.5536 0.618956 -2.58711
lowerneck -7.46031 3.60528 0.626877
upperneck 23.6135 4.87807 -6.50736
head 8.76426 1.1038 -1.9263
rclavicle 1.03368e-014 4.77083e-014
rhumerus -15.8035 -10.0686 -86.3641
rradius 33.2397
rwrist 11.6709
rhand -10.8774 11.5582
rfingers 7.12502
rthumb 15.1386 -17.8681
lclavicle 1.03368e-014 4.77083e-014
lhumerus -27.6865 -17.4511 88.0371
lradius 33.7455
lwrist -12.2637
lhand -26.8187 -15.7396
lfingers 7.12502
lthumb -0.245015 14.24
rfemur -18.4594 -20.3742 15.9117
rtibia 32.1889
rfoot -7.51879 32.0653
rtoes -6.37287
lfemur -14.2943 10.0476 -21.8311
ltibia 31.0705
lfoot -15.8025 -3.21805
ltoes -0.456746
188
root 0.232349 19.2154 3.27993 -175.786 1.58102 178.631
lowerback -7.05562 0.40461 6.93497
upperback 7.69626 0.00900129 1.00089
thorax 12.3591 0.757046 -2.75145
lowerneck -7.32141 3.81736 0.931305
upperneck 23.7154 5.1718 -6.84062
head 8.80337 1.22199 -2.06739
rclavicle -1.59028e-015 -1.35174e-014
rhumerus -15.5949 -9.48761 -86.7391
rradius 34.3078
rwrist 11.3827
rhand -10.9888 11.4959
rfingers 7.12502
rthumb 15.0313 -17.9385
lclavicle -1.59028e-015 -1.35174e-014
lhumerus -28.7057 -15.5546 87.9441
lradius 32.9002
lwrist -12.0538
lhand -25.9023 -14.9417
lfingers 7.12502
lthumb 0.640086 15.0371
rfemur -18.8018 -19.6555 15.9267
rtibia 32.162
rfoot -6.55517 32.4624
rtoes -4.69516
lfemur -14.3735 9.96141 -21.9481
ltibia 31.1526
lfoot -15.7969 -2.12523
ltoes -1.06147
189
root 0.24645 19.2208 3.28727 -175.725 2.61089 178.556
lowerback -6.66992 0.571515 7.14649
upperback 7.71554 0.257555 0.899357
thorax 12.1764 0.896758 -2.93947
lowerneck -7.17334 1.82252 1.50471
upperneck 23.4982 6.11993 -7.79216
head 8.79081 2.95082 -2.19168
rclavicle 1.15295e-014 -8.74653e-015
rhumerus -15.4889 -9.01526 -87.0986
rradius 35.4469
rwrist 11.1338
rhand -11.207 11.6486
rfingers 7.12502
rthumb 14.821 -17.8014
lclavicle 1.15295e-014 -8.74653e-015
lhumerus -29.6354 -13.6666 87.7206
lradius 32.006
lwrist -12.189
lhand -25.2557 -14.2881
lfingers 7.12502
lthumb 1.26462 15.6879
rfemur -19.0119 -18.5485 15.9327
rtibia 32.1476
rfoot -6.61068 32.3439
rtoes -4.93987
lfemur -14.4608 9.89066 -22.0557
ltibia 31.2605
lfoot -15.7865 -1.12948
ltoes -1.66608
190
root 0.260307 19.2262 3.29159 -175.696 3.50164 178.46
lowerback -6.30727 0.703944 7.31985
upperback 7.7591 0.465014 0.799854
thorax 12.0332 1.01649 -3.11193
lowerneck -7.1156 1.94939 1.81052
upperneck 23.6405 6.37784 -8.0952
head 8.86171 3.07833 -2.32127
rclavicle -1.43125e-014 3.02153e-014
rhumerus -15.4571 -8.53638 -87.4318
rradius 36.7073
rwrist 10.8358
rhand -11.4341 11.7599
rfingers 7.12502
rthumb 14.6023 -17.7061
lclavicle -1.43125e-014 3.02153e-014
lhumerus -30.4749 -11.8638 87.4583
lradius 31.0929
lwrist -12.3089
lhand -24.727 -13.6728
lfingers 7.12502
lthumb 1.77525 16.2995
rfemur -19.1479 -17.575 15.8878
rtibia 32.1284
rfoot -6.66496 32.2572
rtoes -5.09737
lfemur -14.5215 9.76826 -22.1579
ltibia 31.3951
lfoot -15.7802 -0.284226
ltoes -2.00034
